<?xml version="1.0" encoding="utf-8"?>
<!-- Generator: Adobe Illustrator 16.0.0, SVG Export Plug-In . SVG Version: 6.00 Build 0)  -->
<!DOCTYPE svg PUBLIC "-//W3C//DTD SVG 1.1//EN" "http://www.w3.org/Graphics/SVG/1.1/DTD/svg11.dtd">
<svg version="1.1" id="Layer_1" xmlns="http://www.w3.org/2000/svg" xmlns:xlink="http://www.w3.org/1999/xlink" x="0px" y="0px"
	 width="171.347px" height="154.397px" viewBox="0 0 171.347 154.397" enable-background="new 0 0 171.347 154.397"
	 xml:space="preserve">
<path fill="none" stroke="#000000" stroke-miterlimit="10" d="M6.333,33.704c18.205-15.307,20.57,57.143,0,44.898
	c-11.566-6.886-3.3,34.944,2.315,70.342c30.778,3.632,61.502,6.936,54.321-1.09c-14.285-15.964,56.122-19.75,51.02,0
	c-2.336,9.046,23.797,6.305,51.732,2.279c4.385-29.308,8.631-56.657,0.613-51.264c-16.689,11.225-14.943-55.102,0-45.918
	c6.977,4.288,4.18-23.238,0.738-52.452H2.495C0.059,22.82-0.403,39.367,6.333,33.704z"/>
</svg>
