<?xml version="1.0" encoding="utf-8"?>
<!-- Generator: Adobe Illustrator 16.0.0, SVG Export Plug-In . SVG Version: 6.00 Build 0)  -->
<!DOCTYPE svg PUBLIC "-//W3C//DTD SVG 1.1//EN" "http://www.w3.org/Graphics/SVG/1.1/DTD/svg11.dtd">
<svg version="1.1" id="Layer_1" xmlns="http://www.w3.org/2000/svg" xmlns:xlink="http://www.w3.org/1999/xlink" x="0px" y="0px"
	 width="188.931px" height="162.537px" viewBox="0 0 188.931 162.537" enable-background="new 0 0 188.931 162.537"
	 xml:space="preserve">
<path fill="none" stroke="#000000" stroke-miterlimit="10" d="M174.878,126.734c13.924,18.367,21.791-58.164,0-40.816
	c-12.844,10.225-4.75-34.14,0.645-69.372c-32.205,5.28-64.227,10.463-57.068-0.353c14.285-21.592-68.368-20.246-48.981,0
	c9.463,9.881-20.693,5.537-52.151,0.735c5.032,27.926,8.97,54.6-2.445,47.698c-23.633-14.285-14.123,63.265,0,46.939
	c6.823-7.887,2.884,20.902-0.707,50.471h159.089C170.685,138.117,169.112,119.128,174.878,126.734z"/>
</svg>
