<?xml version="1.0" encoding="utf-8"?>
<!-- Generator: Adobe Illustrator 16.0.0, SVG Export Plug-In . SVG Version: 6.00 Build 0)  -->
<!DOCTYPE svg PUBLIC "-//W3C//DTD SVG 1.1//EN" "http://www.w3.org/Graphics/SVG/1.1/DTD/svg11.dtd">
<svg version="1.1" id="Layer_1" xmlns="http://www.w3.org/2000/svg" xmlns:xlink="http://www.w3.org/1999/xlink" x="0px" y="0px"
	 width="176.873px" height="181.574px" viewBox="0 0 176.873 181.574" enable-background="new 0 0 176.873 181.574"
	 xml:space="preserve">
<path fill="none" stroke="#000000" stroke-miterlimit="10" d="M59.878,166.697c-16.327,14.124,61.226,23.633,46.938,0
	c-7.162-11.848,21.844-7.157,50.877-1.869c-3.589-25.131-5.286-44.977,2.986-37.055c20.246,19.387,21.59-63.266,0-48.98
	c-11.364,7.519-5.068-28.21,0.447-61.96c-28.93,4.394-55.433,7.451-47.287-2.781c17.348-21.791-59.184-13.924-40.816,0
	c9.956,7.548-25.661,2.522-58.257-0.868c4.669,31.256,9.264,64.138-0.836,61.529c-19.75-5.102-15.964,65.306,0,51.021
	c6.838-6.119,5.449,15.287,2.643,40.795C43.407,163.245,67.126,160.427,59.878,166.697z"/>
</svg>
