<?xml version="1.0" encoding="utf-8"?>
<!-- Generator: Adobe Illustrator 16.0.0, SVG Export Plug-In . SVG Version: 6.00 Build 0)  -->
<!DOCTYPE svg PUBLIC "-//W3C//DTD SVG 1.1//EN" "http://www.w3.org/Graphics/SVG/1.1/DTD/svg11.dtd">
<svg version="1.1" id="Layer_1" xmlns="http://www.w3.org/2000/svg" xmlns:xlink="http://www.w3.org/1999/xlink" x="0px" y="0px"
	 width="175.678px" height="161.22px" viewBox="0 0 175.678 161.22" enable-background="new 0 0 175.678 161.22"
	 xml:space="preserve">
<path fill="none" stroke="#000000" stroke-miterlimit="10" d="M160.802,128.939c14.123,16.326,23.631-61.225,0-46.939
	c-13.795,8.34-5.172-32.342,0.712-65.021c-28.597,5.188-56.649,9.57-49.592-2.103c14.286-23.633-63.266-14.124-46.939,0
	c7.938,6.866-21.27,2.833-51.034-0.775c5.364,34.585,12.522,75.745,0.103,65.857c-21.791-17.346-13.924,59.184,0,40.816
	c6.134-8.092,3.963,13.919,1.115,39.945h144.078C156.718,139.117,155.452,122.755,160.802,128.939z"/>
</svg>
