<?xml version="1.0" encoding="utf-8"?>
<!-- Generator: Adobe Illustrator 16.0.0, SVG Export Plug-In . SVG Version: 6.00 Build 0)  -->
<!DOCTYPE svg PUBLIC "-//W3C//DTD SVG 1.1//EN" "http://www.w3.org/Graphics/SVG/1.1/DTD/svg11.dtd">
<svg version="1.1" id="Layer_1" xmlns="http://www.w3.org/2000/svg" xmlns:xlink="http://www.w3.org/1999/xlink" x="0px" y="0px"
	 width="186.046px" height="183.474px" viewBox="0 0 186.046 183.474" enable-background="new 0 0 186.046 183.474"
	 xml:space="preserve">
<path fill="none" stroke="#000000" stroke-miterlimit="10" d="M171.387,115.208c18.529,13.266,19.225-63.267,0-46.938
	c-9.413,7.993-4.756-23.148,0.074-54.745c-33.762,5.131-70.264,11.236-61.685,1.134c16.327-19.226-60.204-18.53-46.938,0
	c6.614,9.239-22.289,3.39-51.164-1.87c5.196,36.376,14.355,83.825,2.985,74.17c-19.226-16.328-18.53,60.204,0,46.938
	c7.714-5.523,4.909,13.715,0.712,37.02c29.294-5.316,59.163-11.479,52.45-2.102c-13.266,18.529,63.266,19.225,46.938,0
	c-8.358-9.844,26.074-4.303,59.073,0.734C168.447,139.667,161.809,108.351,171.387,115.208z"/>
</svg>
