<?xml version="1.0" encoding="utf-8"?>
<!-- Generator: Adobe Illustrator 16.0.0, SVG Export Plug-In . SVG Version: 6.00 Build 0)  -->
<!DOCTYPE svg PUBLIC "-//W3C//DTD SVG 1.1//EN" "http://www.w3.org/Graphics/SVG/1.1/DTD/svg11.dtd">
<svg version="1.1" id="Layer_1" xmlns="http://www.w3.org/2000/svg" xmlns:xlink="http://www.w3.org/1999/xlink" x="0px" y="0px"
	 width="190.126px" height="182.77px" viewBox="0 0 190.126 182.77" enable-background="new 0 0 190.126 182.77"
	 xml:space="preserve">
<path fill="none" stroke="#000000" stroke-miterlimit="10" d="M176.195,130.252c15.965,14.285,19.75-56.121,0-51.02
	c-10.261,2.65-5.355-31.331-0.613-63.023c-27.935,4.025-54.068,6.767-51.731-2.279c5.102-19.75-65.306-15.964-51.021,0
	c7.181,8.025-23.543,4.721-54.321,1.089c4.371,27.557,7.135,51.216-2.315,44.962c-21.592-14.285-20.246,68.367,0,48.98
	c10.334-9.896,5.109,23.539,0.074,56.479c30.487-4.634,58.74-8.474,49.54,1.134c-19.388,20.246,63.266,21.591,48.979,0
	c-7.245-10.95,25.666-5.502,58.268-0.156C170.606,143.025,169.775,124.507,176.195,130.252z"/>
</svg>
