<?xml version="1.0" encoding="utf-8"?>
<!-- Generator: Adobe Illustrator 16.0.0, SVG Export Plug-In . SVG Version: 6.00 Build 0)  -->
<!DOCTYPE svg PUBLIC "-//W3C//DTD SVG 1.1//EN" "http://www.w3.org/Graphics/SVG/1.1/DTD/svg11.dtd">
<svg version="1.1" id="Layer_1" xmlns="http://www.w3.org/2000/svg" xmlns:xlink="http://www.w3.org/1999/xlink" x="0px" y="0px"
	 width="182.25px" height="163.991px" viewBox="0 0 182.25 163.991" enable-background="new 0 0 182.25 163.991"
	 xml:space="preserve">
<path fill="none" stroke="#000000" stroke-miterlimit="10" d="M114.402,5.013c9.184,14.944-57.143,16.688-45.918,0
	c6.084-9.045-29.497-2.484-62.555,2.279C1.187,38.984-3.718,72.965,6.542,70.315c19.75-5.102,15.965,65.305,0,51.02
	c-6.42-5.745-5.589,12.773-3.141,36.168c31.683,5.195,63.073,10.294,57.038,0.156c-12.245-20.57,60.205-18.205,44.898,0
	c-9.089,10.81,39.025,3.084,76.411-1.594V6.042C147.916,2.065,109.385-3.151,114.402,5.013z"/>
</svg>
