<?xml version="1.0" encoding="utf-8"?>
<!-- Generator: Adobe Illustrator 16.0.0, SVG Export Plug-In . SVG Version: 6.00 Build 0)  -->
<!DOCTYPE svg PUBLIC "-//W3C//DTD SVG 1.1//EN" "http://www.w3.org/Graphics/SVG/1.1/DTD/svg11.dtd">
<svg version="1.1" id="Layer_1" xmlns="http://www.w3.org/2000/svg" xmlns:xlink="http://www.w3.org/1999/xlink" x="0px" y="0px"
	 width="173.457px" height="188.06px" viewBox="0 0 173.457 188.06" enable-background="new 0 0 173.457 188.06"
	 xml:space="preserve">
<path fill="none" stroke="#000000" stroke-miterlimit="10" d="M68.868,171.95c-19.388,18.707,60.204,22.17,39.796,1.73
	c-10.486-10.502,21.592-7.162,53.047-3.348c-4.047-26.096-7.073-48.449,0.104-42.305c16.688,14.285,12.903-55.102,0-42.858
	c-7.376,6.999-1.104-34.347,2.643-68.388c-33.617,4.114-72.125,8.96-60.775-2.405C124.09-6.06,44.498-2.598,63.885,16.109
	C75.155,26.982,35.057,20.62,0.5,16.723v155.161C36.028,168.097,80.684,160.55,68.868,171.95z"/>
</svg>
