<?xml version="1.0" encoding="utf-8"?>
<!-- Generator: Adobe Illustrator 16.0.0, SVG Export Plug-In . SVG Version: 6.00 Build 0)  -->
<!DOCTYPE svg PUBLIC "-//W3C//DTD SVG 1.1//EN" "http://www.w3.org/Graphics/SVG/1.1/DTD/svg11.dtd">
<svg version="1.1" id="Layer_1" xmlns="http://www.w3.org/2000/svg" xmlns:xlink="http://www.w3.org/1999/xlink" x="0px" y="0px"
	 width="170.775px" height="167.841px" viewBox="0 0 170.775 167.841" enable-background="new 0 0 170.775 167.841"
	 xml:space="preserve">
<path fill="none" stroke="#000000" stroke-miterlimit="10" d="M104.538,6.843c14.286,21.591-68.367,20.246-48.979,0
	c9.2-9.607-19.053-5.768-49.54-1.134c-4.83,31.597-9.487,62.738-0.074,54.745c19.225-16.329,18.529,60.203,0,46.937
	c-9.578-6.857-2.939,24.461,2.445,54.344c31.458,4.801,61.614,9.145,52.151-0.736c-19.387-20.246,63.266-21.592,48.98,0
	c-7.157,10.816,24.864,5.633,57.069,0.354c3.758-24.545,6.207-44.658-0.645-38.793c-16.689,14.285-12.904-55.101,0-42.857
	c7.714,7.32,0.5-38.238-3.141-73.016C130.204,1.34,97.293-4.107,104.538,6.843z"/>
</svg>
