<?xml version="1.0" encoding="utf-8"?>
<!-- Generator: Adobe Illustrator 16.0.0, SVG Export Plug-In . SVG Version: 6.00 Build 0)  -->
<!DOCTYPE svg PUBLIC "-//W3C//DTD SVG 1.1//EN" "http://www.w3.org/Graphics/SVG/1.1/DTD/svg11.dtd">
<svg version="1.1" id="Layer_1" xmlns="http://www.w3.org/2000/svg" xmlns:xlink="http://www.w3.org/1999/xlink" x="0px" y="0px"
	 width="172.534px" height="152.289px" viewBox="0 0 172.534 152.289" enable-background="new 0 0 172.534 152.289"
	 xml:space="preserve">
<path fill="none" stroke="#000000" stroke-miterlimit="10" d="M164.631,101.318c-14.123,16.326-23.633-61.225,0-46.94
	c11.415,6.901,7.478-19.772,2.445-47.698c-32.999-5.037-67.432-10.578-59.073-0.735c16.328,19.225-60.203,18.529-46.938,0
	c6.713-9.377-23.155-3.214-52.45,2.103C2.732,40.726-5.891,81.408,7.904,73.067c23.632-14.285,14.124,63.266,0,46.94
	c-5.35-6.184-4.083,10.178-1.557,31.781h157.577C167.515,122.22,171.455,93.429,164.631,101.318z"/>
</svg>
