<?xml version="1.0" encoding="utf-8"?>
<!-- Generator: Adobe Illustrator 16.0.0, SVG Export Plug-In . SVG Version: 6.00 Build 0)  -->
<!DOCTYPE svg PUBLIC "-//W3C//DTD SVG 1.1//EN" "http://www.w3.org/Graphics/SVG/1.1/DTD/svg11.dtd">
<svg version="1.1" id="Layer_1" xmlns="http://www.w3.org/2000/svg" xmlns:xlink="http://www.w3.org/1999/xlink" x="0px" y="0px"
	 width="157.523px" height="169.962px" viewBox="0 0 157.523 169.962" enable-background="new 0 0 157.523 169.962"
	 xml:space="preserve">
<path fill="none" stroke="#000000" stroke-miterlimit="10" d="M151.579,127.142c-18.53,13.266-19.226-63.266,0-46.938
	c11.37,9.655,2.21-37.794-2.985-74.17c-29.034-5.288-58.039-9.979-50.877,1.87c14.286,23.632-63.266,14.124-46.939,0
	c7.248-6.27-16.471-3.453-43.305-0.169C3.727,41.775-2.546,83.122,4.83,76.123c12.902-12.244,16.688,57.143,0,42.857
	c-7.177-6.145-4.151,16.209-0.104,42.305c29.764,3.608,58.973,7.642,51.034,0.775c-16.327-14.124,61.226-23.633,46.938,0
	c-7.057,11.673,20.995,7.291,49.592,2.103C156.488,140.857,159.293,121.62,151.579,127.142z"/>
</svg>
