<?xml version="1.0" encoding="utf-8"?>
<!-- Generator: Adobe Illustrator 16.0.0, SVG Export Plug-In . SVG Version: 6.00 Build 0)  -->
<!DOCTYPE svg PUBLIC "-//W3C//DTD SVG 1.1//EN" "http://www.w3.org/Graphics/SVG/1.1/DTD/svg11.dtd">
<svg version="1.1" id="Layer_1" xmlns="http://www.w3.org/2000/svg" xmlns:xlink="http://www.w3.org/1999/xlink" x="0px" y="0px"
	 width="170.412px" height="163.419px" viewBox="0 0 170.412 163.419" enable-background="new 0 0 170.412 163.419"
	 xml:space="preserve">
<path fill="none" stroke="#000000" stroke-miterlimit="10" d="M6.842,69.571c21.591-14.286,20.246,68.367,0,48.98
	c-8.272-7.922-6.575,11.924-2.985,37.055c28.875,5.26,57.778,11.109,51.164,1.869c-13.266-18.529,63.266-19.225,46.938,0
	c-8.578,10.104,27.924,3.998,61.686-1.133c5.035-32.941,10.26-66.376-0.074-56.48c-20.246,19.387-21.592-63.265,0-48.98
	c9.449,6.254,6.686-17.406,2.314-44.962c-30.449-3.593-60.951-7.506-54.861-1.089c12.244,12.903-57.143,16.688-42.857,0
	C75.745-4.022,39.97,2.647,7.291,7.611C1.775,41.361-4.521,77.09,6.842,69.571z"/>
</svg>
