<?xml version="1.0" encoding="utf-8"?>
<!-- Generator: Adobe Illustrator 16.0.0, SVG Export Plug-In . SVG Version: 6.00 Build 0)  -->
<!DOCTYPE svg PUBLIC "-//W3C//DTD SVG 1.1//EN" "http://www.w3.org/Graphics/SVG/1.1/DTD/svg11.dtd">
<svg version="1.1" id="Layer_1" xmlns="http://www.w3.org/2000/svg" xmlns:xlink="http://www.w3.org/1999/xlink" x="0px" y="0px"
	 width="187.35px" height="184.265px" viewBox="0 0 187.35 184.265" enable-background="new 0 0 187.35 184.265"
	 xml:space="preserve">
<path fill="none" stroke="#000000" stroke-miterlimit="10" d="M110.438,15.054c15.307-18.205-57.144-20.57-44.898,0
	c6.035,10.138-25.355,5.039-57.038-0.156c3.641,34.778,10.854,80.336,3.141,73.016c-12.904-12.244-16.689,57.143,0,42.858
	c6.852-5.867,4.402,14.246,0.645,38.791c32.083-5.26,64.347-10.617,58.235-0.352c-12.244,20.57,60.205,18.205,44.898,0
	c-8.689-10.336,34.909-3.727,71.429,0.961V13.46C149.464,18.138,101.35,25.864,110.438,15.054z"/>
</svg>
