<?xml version="1.0" encoding="utf-8"?>
<!-- Generator: Adobe Illustrator 16.0.0, SVG Export Plug-In . SVG Version: 6.00 Build 0)  -->
<!DOCTYPE svg PUBLIC "-//W3C//DTD SVG 1.1//EN" "http://www.w3.org/Graphics/SVG/1.1/DTD/svg11.dtd">
<svg version="1.1" id="Layer_1" xmlns="http://www.w3.org/2000/svg" xmlns:xlink="http://www.w3.org/1999/xlink" x="0px" y="0px"
	 width="158.095px" height="155.231px" viewBox="0 0 158.095 155.231" enable-background="new 0 0 158.095 155.231"
	 xml:space="preserve">
<path fill="none" stroke="#000000" stroke-miterlimit="10" d="M5.014,48.312c14.944-9.184,16.688,57.142,0,45.917
	c-8.154-5.484-3.625,22.895,0.836,52.758c32.596,3.39,68.213,8.416,58.257,0.867c-18.367-13.924,58.163-21.79,40.816,0
	c-8.146,10.232,18.358,7.176,47.288,2.781c4.963-30.374,9.295-59.146-0.449-53.346c-20.57,12.246-18.205-60.205,0-44.898
	c8.523,7.167,5.523-21.231,1.58-51.892H3.734C0.563,27.91-1.593,52.372,5.014,48.312z"/>
</svg>
