<?xml version="1.0" encoding="utf-8"?>
<!-- Generator: Adobe Illustrator 16.0.0, SVG Export Plug-In . SVG Version: 6.00 Build 0)  -->
<!DOCTYPE svg PUBLIC "-//W3C//DTD SVG 1.1//EN" "http://www.w3.org/Graphics/SVG/1.1/DTD/svg11.dtd">
<svg version="1.1" id="Layer_1" xmlns="http://www.w3.org/2000/svg" xmlns:xlink="http://www.w3.org/1999/xlink" x="0px" y="0px"
	 width="186.836px" height="159.497px" viewBox="0 0 186.836 159.497" enable-background="new 0 0 186.836 159.497"
	 xml:space="preserve">
<path fill="none" stroke="#000000" stroke-miterlimit="10" d="M15.054,52.392c-18.205-15.307-20.57,57.144,0,44.898
	c9.744-5.8,5.412,22.972,0.448,53.346c32.68-4.964,68.454-11.634,60.876-2.781c-14.286,16.688,55.101,12.903,42.856,0
	c-6.089-6.417,24.413-2.503,54.862,1.089c-5.615-35.398-13.882-77.228-2.315-70.342c20.57,12.244,18.205-60.205,0-44.898
	c-6.735,5.663-6.273-10.883-3.838-33.204H16.633C20.577,31.161,23.578,59.559,15.054,52.392z"/>
</svg>
