<?xml version="1.0" encoding="utf-8"?>
<!-- Generator: Adobe Illustrator 16.0.0, SVG Export Plug-In . SVG Version: 6.00 Build 0)  -->
<!DOCTYPE svg PUBLIC "-//W3C//DTD SVG 1.1//EN" "http://www.w3.org/Graphics/SVG/1.1/DTD/svg11.dtd">
<svg version="1.1" id="Layer_1" xmlns="http://www.w3.org/2000/svg" xmlns:xlink="http://www.w3.org/1999/xlink" x="0px" y="0px"
	 width="168.357px" height="166.584px" viewBox="0 0 168.357 166.584" enable-background="new 0 0 168.357 166.584"
	 xml:space="preserve">
<path fill="none" stroke="#000000" stroke-miterlimit="10" d="M63.885,160.044c-19.388-18.707,60.204-22.17,39.796-1.731
	c-11.349,11.365,27.158,6.519,60.775,2.405c2.807-25.508,4.196-46.914-2.643-40.795c-15.964,14.285-19.75-56.123,0-51.021
	c10.101,2.609,5.506-30.273,0.837-61.529c-27.538-2.864-52.919-4.561-46.845,3.478C129.072,28.405,49.48,31.052,74.99,7.923
	C90.333-5.988,39.6,2.987,0.5,8.058v152.6C35.057,164.554,75.155,170.917,63.885,160.044z"/>
</svg>
