<?xml version="1.0" encoding="utf-8"?>
<!-- Generator: Adobe Illustrator 16.0.0, SVG Export Plug-In . SVG Version: 6.00 Build 0)  -->
<!DOCTYPE svg PUBLIC "-//W3C//DTD SVG 1.1//EN" "http://www.w3.org/Graphics/SVG/1.1/DTD/svg11.dtd">
<svg version="1.1" id="Layer_1" xmlns="http://www.w3.org/2000/svg" xmlns:xlink="http://www.w3.org/1999/xlink" x="0px" y="0px"
	 width="801px" height="601px" viewBox="0 0 801 601" style="enable-background:new 0 0 801 601;" xml:space="preserve">
<style type="text/css">
<![CDATA[
	.st0{fill:none;stroke:#000000;stroke-miterlimit:10;}
]]>
</style>
<path class="st0" d="M733.153,147.855c9.184,14.944-57.143,16.688-45.918,0c6.084-9.045-29.497-2.484-62.555,2.279
	c-4.742,31.692-9.647,65.673,0.613,63.023c19.75-5.102,15.965,65.305,0,51.02c-6.42-5.745-5.589,12.774-3.141,36.168
	c31.683,5.195,63.073,10.294,57.038,0.156c-12.245-20.57,60.205-18.205,44.898,0c-9.089,10.81,39.025,3.083,76.411-1.594V148.884
	C766.667,144.907,728.136,139.691,733.153,147.855z"/>
<path class="st0" d="M625.293,52.952c-14.943-9.184-16.689,57.143,0,45.918c8.018-5.393,3.771,21.957-0.613,51.264
	c33.058-4.763,68.639-11.324,62.555-2.279c-11.225,16.688,55.102,14.944,45.918,0c-5.017-8.164,33.514-2.948,67.348,1.029V0.5
	H626.032C629.474,29.714,632.271,57.24,625.293,52.952z"/>
<path class="st0" d="M308.564,52.392c-18.205-15.307-20.57,57.144,0,44.898c9.744-5.8,5.412,22.971,0.448,53.346
	c32.68-4.964,68.454-11.633,60.876-2.781c-14.286,16.688,55.101,12.903,42.856,0c-6.089-6.417,24.413-2.503,54.862,1.089
	c-5.615-35.398-13.882-77.228-2.315-70.342c20.57,12.244,18.205-60.205,0-44.898c-6.735,5.663-6.273-10.883-3.838-33.204H310.143
	C314.086,31.161,317.087,59.559,308.564,52.392z"/>
<path class="st0" d="M625.293,264.176c15.965,14.285,19.75-56.121,0-51.02c-10.261,2.65-5.355-31.331-0.613-63.023
	c-27.935,4.025-54.068,6.767-51.731-2.279c5.102-19.75-65.306-15.964-51.021,0c7.181,8.025-23.543,4.721-54.321,1.089
	c4.371,27.557,7.135,51.216-2.315,44.962c-21.592-14.285-20.246,68.367,0,48.98c10.334-9.896,5.109,23.539,0.074,56.479
	c30.487-4.634,58.74-8.474,49.54,1.134c-19.388,20.246,63.266,21.591,48.979,0c-7.245-10.95,25.666-5.502,58.268-0.156
	C619.705,276.95,618.874,258.431,625.293,264.176z"/>
<path class="st0" d="M465.292,33.704c18.205-15.307,20.57,57.143,0,44.898c-11.566-6.886-3.3,34.944,2.315,70.342
	c30.778,3.632,61.502,6.936,54.321-1.089c-14.285-15.964,56.122-19.75,51.021,0c-2.337,9.045,23.797,6.304,51.731,2.279
	c4.385-29.308,8.631-56.657,0.613-51.264c-16.689,11.225-14.943-55.102,0-45.918c6.978,4.288,4.181-23.238,0.738-52.452H461.454
	C459.018,22.82,458.556,39.367,465.292,33.704z"/>
<path class="st0" d="M563.885,300.5c14.286,21.591-68.367,20.246-48.979,0c9.2-9.607-19.053-5.768-49.54-1.134
	c-4.83,31.597-9.487,62.738-0.074,54.745c19.225-16.329,18.529,60.203,0,46.938c-9.578-6.857-2.939,24.46,2.445,54.343
	c31.458,4.802,61.614,9.146,52.151-0.735c-19.387-20.246,63.266-21.592,48.98,0c-7.157,10.815,24.864,5.633,57.069,0.353
	c3.758-24.545,6.207-44.658-0.645-38.792c-16.689,14.285-12.904-55.102,0-42.857c7.714,7.32,0.5-38.238-3.141-73.016
	C589.551,294.998,556.64,289.55,563.885,300.5z"/>
<path class="st0" d="M308.564,419.739c-18.53,13.266-19.226-63.266,0-46.938c11.37,9.655,2.21-37.794-2.985-74.17
	c-29.034-5.288-58.04-9.979-50.877,1.87c14.286,23.632-63.266,14.124-46.939,0c7.248-6.27-16.471-3.453-43.306-0.169
	c-3.746,34.041-10.019,75.387-2.643,68.388c12.903-12.244,16.688,57.143,0,42.857c-7.177-6.145-4.151,16.209-0.103,42.305
	c29.764,3.608,58.972,7.642,51.034,0.775c-16.327-14.124,61.225-23.633,46.939,0c-7.057,11.673,20.995,7.291,49.592,2.103
	C313.473,433.454,316.278,414.216,308.564,419.739z"/>
<path class="st0" d="M308.564,212.596c21.591-14.286,20.246,68.367,0,48.979c-8.272-7.921-6.575,11.925-2.985,37.055
	c28.875,5.259,57.778,11.109,51.164,1.87c-13.266-18.53,63.266-19.226,46.938,0c-8.579,10.103,27.923,3.998,61.685-1.134
	c5.035-32.94,10.26-66.375-0.074-56.479c-20.246,19.387-21.592-63.266,0-48.98c9.45,6.254,6.687-17.406,2.315-44.962
	c-30.449-3.593-60.951-7.506-54.862-1.089c12.244,12.903-57.143,16.688-42.856,0c7.578-8.852-28.196-2.183-60.876,2.781
	C303.497,184.386,297.2,220.115,308.564,212.596z"/>
<path class="st0" d="M465.292,401.049c18.529,13.266,19.225-63.266,0-46.938c-9.413,7.993-4.756-23.148,0.074-54.745
	c-33.762,5.131-70.264,11.236-61.685,1.134c16.327-19.226-60.204-18.53-46.938,0c6.614,9.239-22.289,3.39-51.164-1.87
	c5.196,36.376,14.355,83.826,2.985,74.17c-19.226-16.328-18.53,60.203,0,46.938c7.714-5.522,4.909,13.715,0.712,37.021
	c29.294-5.316,59.163-11.479,52.45-2.103c-13.266,18.529,63.266,19.225,46.938,0c-8.358-9.843,26.074-4.302,59.073,0.735
	C462.352,425.509,455.713,394.192,465.292,401.049z"/>
<path class="st0" d="M207.763,300.5c-16.327,14.124,61.225,23.632,46.939,0c-7.163-11.849,21.843-7.158,50.877-1.87
	c-3.589-25.13-5.287-44.977,2.985-37.055c20.246,19.388,21.591-63.266,0-48.979c-11.364,7.519-5.067-28.21,0.448-61.96
	c-28.93,4.394-55.433,7.451-47.288-2.781c17.347-21.791-59.184-13.924-40.816,0c9.956,7.548-25.661,2.522-58.257-0.868
	c4.669,31.256,9.264,64.138-0.836,61.529c-19.75-5.102-15.964,65.306,0,51.021c6.838-6.119,5.449,15.288,2.643,40.795
	C191.292,297.048,215.01,294.231,207.763,300.5z"/>
<path class="st0" d="M308.564,568.719c14.124,16.326,23.632-61.225,0-46.939c-13.794,8.34-5.172-32.342,0.712-65.021
	c-28.597,5.188-56.649,9.57-49.592-2.103c14.286-23.633-63.266-14.124-46.939,0c7.938,6.866-21.27,2.833-51.034-0.775
	c5.364,34.585,12.522,75.745,0.103,65.857c-21.791-17.346-13.924,59.184,0,40.816c6.134-8.092,3.963,13.919,1.115,39.945h144.078
	C304.48,578.897,303.214,562.536,308.564,568.719z"/>
<path class="st0" d="M465.292,550.03c-14.123,16.326-23.633-61.225,0-46.939c11.415,6.901,7.478-19.772,2.445-47.698
	c-32.999-5.037-67.432-10.578-59.073-0.735c16.328,19.225-60.203,18.529-46.938,0c6.713-9.377-23.155-3.214-52.45,2.103
	c-5.884,32.679-14.507,73.36-0.712,65.021c23.632-14.285,14.124,63.266,0,46.939c-5.35-6.184-4.083,10.178-1.557,31.781h157.577
	C468.175,570.932,472.115,542.142,465.292,550.03z"/>
<path class="st0" d="M625.293,565.198c13.924,18.367,21.791-58.164,0-40.816c-12.844,10.224-4.751-34.141,0.645-69.372
	c-32.205,5.28-64.227,10.463-57.069-0.353c14.285-21.592-68.367-20.246-48.98,0c9.463,9.881-20.693,5.537-52.151,0.735
	c5.032,27.926,8.97,54.6-2.445,47.698c-23.633-14.285-14.123,63.266,0,46.939c6.823-7.888,2.884,20.902-0.707,50.471h159.09
	C621.099,576.581,619.528,557.592,625.293,565.198z"/>
<path class="st0" d="M724.089,300.5c15.307-18.205-57.144-20.57-44.898,0c6.035,10.138-25.355,5.039-57.038-0.156
	c3.641,34.778,10.854,80.336,3.141,73.016c-12.904-12.244-16.689,57.143,0,42.857c6.852-5.866,4.402,14.247,0.645,38.792
	c32.083-5.261,64.347-10.618,58.235-0.353c-12.244,20.57,60.205,18.205,44.898,0c-8.689-10.335,34.909-3.727,71.429,0.962V298.907
	C763.115,303.584,715,311.31,724.089,300.5z"/>
<path class="st0" d="M729.072,454.657c15.307,18.205-57.143,20.57-44.898,0c6.111-10.266-26.152-4.908-58.235,0.353
	c-5.396,35.231-13.488,79.596-0.645,69.372c21.791-17.348,13.924,59.184,0,40.816c-5.766-7.605-4.194,11.383-1.619,35.303H800.5
	V455.619C763.981,450.93,720.382,444.322,729.072,454.657z"/>
<path class="st0" d="M63.885,299.658c-19.388-18.707,60.204-22.169,39.796-1.731c-11.349,11.365,27.159,6.519,60.776,2.405
	c2.807-25.507,4.196-46.914-2.643-40.795c-15.964,14.285-19.75-56.122,0-51.021c10.1,2.609,5.505-30.273,0.836-61.529
	c-27.538-2.864-52.919-4.561-46.845,3.478c13.265,17.554-66.326,20.201-40.816-2.928c15.343-13.911-35.39-4.936-74.49,0.135v152.6
	C35.057,304.168,75.155,310.531,63.885,299.658z"/>
<path class="st0" d="M161.814,560.555c-13.924,18.367-21.791-58.162,0-40.816c12.419,9.888,5.261-31.272-0.103-65.857
	c-31.456-3.813-63.533-7.153-53.047,3.349c20.408,20.438-59.184,16.976-39.796-1.731c11.816-11.4-32.84-3.853-68.368-0.066V600.5
	h162.43C165.777,574.474,167.949,552.463,161.814,560.555z"/>
<path class="st0" d="M74.99,147.537c-25.51,23.129,54.082,20.481,40.816,2.928c-6.075-8.039,19.307-6.342,46.845-3.478
	c-4.461-29.863-8.991-58.241-0.836-52.757c16.688,11.225,14.944-55.102,0-45.918c-6.606,4.06-4.45-20.402-1.28-47.812H0.5v147.172
	C39.6,142.601,90.333,133.626,74.99,147.537z"/>
<path class="st0" d="M161.814,48.312c14.944-9.184,16.688,57.143,0,45.918c-8.154-5.484-3.625,22.894,0.836,52.757
	c32.596,3.39,68.213,8.416,58.257,0.868c-18.367-13.924,58.164-21.791,40.816,0c-8.146,10.232,18.358,7.175,47.288,2.781
	c4.964-30.375,9.296-59.146-0.448-53.346c-20.57,12.245-18.205-60.205,0-44.898c8.523,7.167,5.522-21.231,1.579-51.892H160.535
	C157.364,27.91,155.208,52.372,161.814,48.312z"/>
<path class="st0" d="M68.868,455.499c-19.388,18.707,60.204,22.17,39.796,1.731c-10.486-10.502,21.591-7.162,53.047-3.349
	c-4.048-26.096-7.074-48.449,0.103-42.305c16.688,14.285,12.903-55.102,0-42.857c-7.376,6.999-1.104-34.347,2.643-68.388
	c-33.617,4.114-72.125,8.96-60.776-2.405c20.408-20.438-59.184-16.976-39.796,1.731c11.27,10.874-28.829,4.511-63.385,0.614v155.16
	C36.028,451.646,80.684,444.098,68.868,455.499z"/>
</svg>
